<?xml version="1.0" standalone="no"?>
<!DOCTYPE svg PUBLIC "-//W3C//DTD SVG 20010904//EN"
 "http://www.w3.org/TR/2001/REC-SVG-20010904/DTD/svg10.dtd">
<svg version="1.0" xmlns="http://www.w3.org/2000/svg"
 width="421.000000pt" height="421.000000pt" viewBox="0 0 421.000000 421.000000"
 preserveAspectRatio="xMidYMid meet">

<g transform="translate(0.000000,421.000000) scale(0.100000,-0.100000)"
fill="#000000" stroke="none">
<path d="M2065 3935 c-22 -15 -56 -41 -75 -57 -107 -89 -150 -113 -242 -133
-49 -11 -58 -10 -63 3 -11 28 -135 3 -236 -48 -79 -40 -188 -122 -244 -182
-55 -59 -74 -105 -61 -151 4 -14 -5 -43 -25 -84 -40 -78 -45 -131 -25 -231 15
-72 15 -86 1 -138 -19 -73 -18 -118 2 -169 8 -22 19 -85 24 -140 4 -55 13
-140 19 -190 7 -49 15 -126 18 -171 4 -45 13 -88 20 -97 9 -10 12 -40 10 -93
l-3 -78 -25 49 c-25 49 -74 105 -91 105 -11 0 -32 -50 -24 -58 3 -3 5 0 5 6 0
19 66 -29 85 -61 17 -28 65 -212 65 -248 0 -16 7 -19 45 -19 l44 0 -5 103 -5
102 19 -34 c10 -18 41 -56 68 -83 65 -65 148 -92 267 -86 69 3 92 10 145 37
103 56 156 131 192 271 12 49 14 77 7 114 -12 59 -2 69 81 87 61 12 153 0 175
-23 7 -8 12 -46 12 -98 1 -185 102 -329 264 -377 80 -23 201 -14 266 19 53 28
122 94 149 143 17 29 17 27 12 -72 l-5 -103 44 0 c38 0 45 3 45 19 0 36 48
220 65 248 9 16 32 39 51 51 34 22 43 51 19 59 -17 5 -69 -51 -96 -103 l-24
-48 -3 78 c-2 52 1 83 10 93 6 8 13 21 14 28 1 8 7 29 12 47 6 18 18 74 27
123 9 50 23 111 32 137 16 49 14 111 -6 230 -10 63 -9 73 15 145 28 82 41 188
30 246 -3 19 -19 54 -35 78 -16 24 -32 60 -36 79 -18 83 -100 189 -196 251
-53 34 -59 44 -30 54 11 3 34 22 50 41 35 39 43 102 16 124 -16 13 -23 10 -77
-33 -34 -27 -39 -28 -72 -17 -19 6 -63 34 -98 62 -35 28 -86 61 -114 74 -57
27 -158 49 -182 39 -9 -3 -47 15 -95 47 -67 44 -88 52 -136 56 -48 3 -62 0
-96 -23z m130 -960 c335 0 363 -2 505 -42 30 -9 71 -24 90 -34 66 -34 112
-132 136 -289 8 -54 19 -122 24 -151 6 -30 8 -71 4 -91 -5 -35 -8 -37 -32 -32
-62 14 -112 37 -112 53 0 28 -38 79 -80 107 -38 26 -44 26 -142 21 -130 -7
-234 -37 -250 -73 -14 -31 5 -71 36 -76 18 -3 16 -6 -14 -22 -19 -10 -49 -32
-66 -48 -31 -29 -32 -29 -70 -13 -64 27 -141 29 -211 7 l-62 -19 -27 28 c-15
16 -46 38 -68 49 -37 18 -38 20 -15 20 34 0 57 46 40 79 -23 42 -246 85 -345
67 -47 -9 -114 -72 -122 -115 -7 -35 -26 -46 -101 -60 -39 -8 -41 -7 -46 19
-8 38 37 324 61 392 34 96 83 158 154 194 76 39 113 44 253 36 72 -4 279 -7
460 -7z m-491 -573 c15 -4 -23 -7 -89 -8 -102 0 -113 1 -93 13 23 14 123 11
182 -5z m995 4 c21 -12 9 -13 -92 -12 -63 0 -114 2 -113 3 5 5 112 21 146 21
19 1 46 -5 59 -12z m-986 -33 c-7 -2 -19 -2 -25 0 -7 3 -2 5 12 5 14 0 19 -2
13 -5z m820 0 c-7 -2 -19 -2 -25 0 -7 3 -2 5 12 5 14 0 19 -2 13 -5z m-761
-43 c42 -13 79 -33 106 -57 35 -32 42 -46 48 -90 14 -114 -44 -268 -125 -330
-81 -63 -214 -81 -312 -43 -29 10 -57 16 -63 13 -6 -3 -8 -3 -4 2 4 4 -12 30
-36 56 -55 62 -74 115 -74 214 0 132 50 215 145 241 77 20 240 17 315 -6z
m1029 -8 c65 -32 101 -99 107 -201 l4 -76 -36 39 c-20 21 -39 36 -42 33 -8 -8
44 -97 56 -97 29 0 -19 -107 -69 -154 -17 -16 -28 -34 -24 -39 3 -6 2 -7 -4
-4 -5 3 -33 -3 -62 -13 -99 -38 -229 -20 -313 44 -80 61 -140 221 -124 331 8
53 53 104 118 133 65 30 73 31 213 29 111 -2 137 -6 176 -25z"/>
<path d="M1578 2271 c-73 -29 -113 -57 -143 -101 -15 -21 -35 -42 -44 -45 -24
-7 -63 -62 -59 -82 5 -28 25 -25 38 7 16 39 47 58 52 32 3 -11 11 -2 25 30 50
109 154 163 271 137 67 -14 125 -57 161 -120 l29 -51 4 42 c3 32 -2 50 -20 77
-17 25 -21 37 -13 43 19 11 -12 30 -56 35 -148 16 -199 15 -245 -4z"/>
<path d="M1603 2220 c-87 -53 -87 -197 0 -250 37 -23 140 -29 119 -8 -9 9 -8
16 5 30 20 22 58 25 50 4 -12 -30 22 -4 37 29 49 102 -22 215 -134 215 -27 0
-58 -8 -77 -20z m51 -55 c9 -25 -5 -45 -30 -45 -14 0 -27 7 -30 15 -10 25 4
45 30 45 13 0 26 -7 30 -15z"/>
<path d="M2469 2286 c-3 -3 -29 -8 -58 -11 -57 -5 -91 -23 -71 -35 8 -5 4 -20
-14 -48 -26 -42 -32 -76 -17 -100 6 -10 12 -4 21 19 19 46 57 87 100 109 137
70 274 30 336 -97 21 -43 30 -53 33 -38 2 11 8 23 14 27 6 4 -5 26 -27 57 -51
69 -142 114 -241 119 -38 2 -72 1 -76 -2z"/>
<path d="M2462 2220 c-91 -55 -96 -172 -12 -244 25 -20 42 -26 80 -26 42 0 48
3 43 16 -7 19 21 44 49 44 11 0 15 -5 12 -15 -11 -27 6 -16 26 18 24 39 26
116 5 158 -34 66 -135 90 -203 49z m43 -70 c0 -18 -6 -26 -23 -28 -24 -4 -38
18 -28 44 3 9 15 14 28 12 17 -2 23 -10 23 -28z"/>
<path d="M970 361 c0 -22 9 -40 26 -56 l27 -25 1082 0 1082 0 27 25 c14 13 26
31 26 40 0 14 -4 13 -29 -4 -29 -21 -32 -21 -1078 -21 -672 0 -1062 4 -1086
11 -20 5 -45 21 -57 36 l-20 26 0 -32z"/>
</g>
</svg>
